<svg width="1080" height="300" viewBox="0 0 1080 300" fill="none" xmlns="http://www.w3.org/2000/svg">
<path fill-rule="evenodd" clip-rule="evenodd" d="M101.336 11.8522C72.9829 13.5046 58 16.2995 58 19.936C58 21.732 62.6652 23.227 68.3629 23.2543C74.0606 23.2851 80.5949 24.438 82.8785 25.8201C87.5437 28.6424 93.2753 262.059 88.8324 268.401C87.4193 270.42 80.7531 273.16 74.0154 274.487C67.2776 275.814 61.7683 278.473 61.7683 280.399C61.7683 286.406 210.617 281.9 233.506 275.202C261.459 267.019 296.882 244.889 312.128 226.077C335.496 197.242 342.113 177.143 342.324 134.385C342.493 99.9765 341.612 95.0948 332.033 77.3878C301.762 21.4275 239.663 3.78559 101.336 11.8522ZM375.459 17.2163C376.31 19.57 381.458 21.9715 386.896 22.5599C392.337 23.1449 397.583 26.2237 398.551 29.4018C399.519 32.5765 400.872 88.2186 401.558 153.049L402.802 270.926L388.67 273.981C360.333 280.104 375.82 283.197 434.832 283.197C493.78 283.197 507.527 280.604 482.879 274.128L470.631 270.912L471.536 158.174C472.033 96.1724 473.36 40.5337 474.486 34.5367C476.111 25.8953 478.598 23.4117 486.481 22.5633C491.953 21.9749 497.123 19.57 497.974 17.2163C499.173 13.9117 485.275 12.9401 436.717 12.9401C388.158 12.9401 374.26 13.9117 375.459 17.2163ZM600.639 15.995C600.639 20.1173 610.274 23.203 623.154 23.203C628.98 23.203 634.693 25.4438 635.854 28.184C637.011 30.9207 639.961 69.5264 642.414 113.968C647.132 199.54 644.83 230.37 631.878 255.145C617.822 282.041 575.681 288.308 556.263 266.39C553.617 263.403 545.203 251.341 537.561 239.579C529.919 227.818 522.099 218.198 520.181 218.198C516.869 218.198 518.956 250.431 523.882 275.342C525.849 285.308 527.597 286.515 543.123 288.629C583.142 294.076 640.372 282.762 667.376 264.067C685.524 251.498 701.174 227.893 706.57 204.942C709.061 194.358 712.102 149.587 713.334 105.453L715.573 25.2077L724.714 23.2578C729.741 22.1836 734.546 19.4229 735.39 17.1205C736.562 13.9288 720.803 12.9401 668.781 12.9401C631.301 12.9401 600.639 14.3153 600.639 15.995ZM844.66 18.9268C841.442 22.2178 819.733 73.4058 796.418 132.674C744.366 264.994 742.701 268.572 730.77 273.505C725.521 275.678 721.225 278.746 721.225 280.327C721.225 281.904 741.574 283.197 766.445 283.197C810.753 283.197 825.785 279.071 798.434 274.412C791.158 273.173 784.175 270.649 782.92 268.805C780.629 265.439 792.296 207.405 796.509 201.217C797.741 199.404 821.7 196.875 849.747 195.596L900.744 193.273L905.063 203.17C918.421 233.781 928.483 260.803 928.483 266.061C928.483 270.413 924.345 272.66 913.41 274.248C905.119 275.452 898.336 277.956 898.336 279.817C898.336 281.907 922.069 283.197 960.514 283.197C1021.33 283.197 1034.32 280.703 1011.36 273.44C1004.47 271.258 998.457 266.106 995.996 260.276C992.548 252.111 947.234 117.94 920.841 37.7422L912.675 12.9401H881.597C856.738 12.9401 849.344 14.1375 844.66 18.9268ZM197.925 21.2736C220.769 24.7596 240.602 40.6363 254.62 66.6596C266.987 89.628 267.142 90.5004 267.142 137.806C267.142 179.387 265.959 188.816 258.155 209.342C245.617 242.32 219.092 267.146 190.604 272.564C157.552 278.852 155.95 276.841 156.112 229.197C156.187 207.156 157.755 151.568 159.594 105.669C163.034 19.9223 164.214 14.459 178.586 17.8526C181.695 18.5847 190.396 20.1242 197.925 21.2736ZM871.129 113.859C883.742 147.726 895.186 178.081 896.558 181.314C898.856 186.739 895.589 187.033 854.416 185.135C829.866 184.002 807.885 182.128 805.571 180.968C802.692 179.524 807.934 157.993 822.163 112.843C833.604 76.536 844.144 48.0564 845.58 49.5548C847.019 51.0532 858.516 79.9912 871.129 113.859Z" fill="white"/>
</svg>
