<?xml version="1.0" encoding="utf-8"?>
<!-- Generator: Adobe Illustrator 23.0.1, SVG Export Plug-In . SVG Version: 6.00 Build 0)  -->
<svg version="1.1" id="Capa_1" xmlns="http://www.w3.org/2000/svg" xmlns:xlink="http://www.w3.org/1999/xlink" x="0px" y="0px"
	 viewBox="0 0 1280 247" style="enable-background:new 0 0 1280 247;" xml:space="preserve">
<style type="text/css">
	.st0{fill:#294993;}
	.st1{fill:#1C8FC6;}
	.st2{fill:#222A7C;}
	.st3{fill:#D07832;}
</style>
<g>
	<path class="st0" d="M541.03,51.49h-39.11c-6.81,0-7.18,0-8.91,6.81c-3.59,14.36-7.06,28.72-10.65,43.08l-7.8,30.45
		c-1.12-1.25-1.86-2.8-2.11-4.46c-6.19-23.64-12.38-47.16-18.69-70.81c0-1.73-0.74-3.84-2.85-4.7c-1.58-0.43-3.25-0.43-4.83,0
		H297.55c-0.46,0-0.9,0.18-1.23,0.51c-0.32,0.33-0.51,0.77-0.51,1.23c0,11.76,0,23.15,0,34.91c0,0,2.47,1.36,3.96,1.36
		c7.92,0,15.84,0,23.77,0c3.59,0,4.21,1.11,4.09,4.33c0,28.22,0,56.57,0,84.92c0,3.22,0.87,3.96,4.08,3.96c12.38,0,24.76,0,37.13,0
		c2.97,0,3.71-0.87,3.71-3.84c0-28.1,0-56.33,0-84.43c0-3.71,0.62-5.2,4.7-4.95c7.3,0,14.61,0,21.91,0c5.32,0,6.19-1.11,6.07-6.44
		c-0.12-5.32,0-14.11,0-21.17c1.72,3.57,3.21,7.25,4.46,11.02l37.13,106.21c0.62,1.49,0.62,3.34,3.34,3.34h45.3
		c0.31,0.05,0.63,0.04,0.93-0.03c0.31-0.07,0.59-0.2,0.85-0.39c0.25-0.18,0.47-0.42,0.63-0.69c0.16-0.27,0.27-0.57,0.31-0.88
		c7.51-20.88,15.1-41.88,22.78-63.01c7.68-21.13,15.27-42.01,22.78-62.64C545.24,51.49,543.75,51.49,541.03,51.49z"/>
	<path class="st1" d="M809.63,175.28c-15.84-40.6-31.65-81.25-47.41-121.94c-0.26-0.97-0.87-1.81-1.72-2.36
		c-0.85-0.55-1.86-0.76-2.86-0.61h-40.35c-1.12-0.12-2.25,0.18-3.16,0.85c-0.91,0.66-1.55,1.64-1.79,2.74l-36.39,92.47
		c-2.35,6.19-4.95,12.38-7.43,18.57c-1.8-1.27-3.39-2.81-4.7-4.58c-6.56-7.68-13.25-15.35-19.56-23.15c-2.6-3.22-4.58-3.09-7.3,0
		c-2.35,2.3-5.14,4.11-8.2,5.32c-3.06,1.21-6.33,1.8-9.62,1.73c-5.69-0.2-11.16-2.22-15.62-5.76c-4.46-3.54-7.66-8.42-9.14-13.92
		c-1.69-5.82-1.48-12.03,0.59-17.72c2.07-5.7,5.89-10.59,10.92-13.97c4.96-2.93,10.71-4.22,16.45-3.69
		c5.73,0.53,11.15,2.86,15.49,6.66c2.48,2.1,4.21,2.23,6.31,0l21.54-26.12c2.97-3.71,2.85-4.33-1.24-7.18
		c-16.87-11.99-37.68-17.08-58.18-14.24c-9.35,0.86-18.42,3.7-26.6,8.33c-8.17,4.63-15.27,10.95-20.81,18.53
		c-10.06,14.1-14.47,31.46-12.38,48.65c0.56,12.58,4.81,24.72,12.23,34.89c7.42,10.17,17.68,17.93,29.48,22.3
		c6.96,2.45,14.13,4.27,21.41,5.45h15.35c0-0.74,1.36-0.62,2.11-0.74c13.38-0.89,26.11-6.11,36.27-14.86
		c1.24-1.11,2.6-1.86,4.21-3.1c-0.9,3.91-2.27,7.69-4.09,11.27c-0.87,2.35-0.87,3.71,2.48,3.71h41.09c2.35,0,3.22-0.87,3.84-3.1
		c1.24-4.46,2.72-8.79,4.08-13.25c0.09-0.46,0.27-0.91,0.53-1.3c0.26-0.39,0.59-0.73,0.99-1c0.39-0.26,0.83-0.45,1.29-0.54
		c0.46-0.09,0.94-0.1,1.4-0.01h35.03c0.87-0.14,1.76,0.06,2.48,0.57c0.72,0.51,1.21,1.28,1.36,2.15c1.49,4.46,3.22,8.91,4.58,13.37
		c0.74,2.48,1.98,3.1,4.46,3.1h38.37C812.23,182.34,812.23,182.34,809.63,175.28z M748.36,134.19c-7.8,0-15.6,0-23.39,0
		c-1.86,0-3.34,0-2.47-2.72l14.11-46.67c0,0,0,0,0.87-1.11c2.23,7.06,4.21,13.86,6.31,20.67c2.1,6.81,5.07,17.21,7.8,25.63
		c1.11,3.71-0.12,4.58-3.22,4.46V134.19z"/>
	<path class="st1" d="M930.45,90.12c-0.4-6.94-2.67-13.64-6.57-19.4c-3.9-5.75-9.29-10.34-15.59-13.28
		c-10.6-4.68-22.09-6.96-33.67-6.68c-16.59,0-33.17,0-49.51,0c-3.84,0-5.08,1.24-4.95,5.08c0,20.3,0,40.73,0,61.03
		c0,20.3,0,41.22,0,61.9c0,2.72,0,3.71,3.59,3.71h37.13c2.97,0,3.59-0.99,3.59-3.71c0-11.39,0-22.78,0-34.17
		c0-3.09,0.87-3.84,3.84-3.84c9.46,0.15,18.9-0.88,28.1-3.1c5.84-0.95,11.4-3.13,16.33-6.39c4.93-3.27,9.11-7.54,12.26-12.55
		C929.94,110.05,931.85,99.99,930.45,90.12z M888.61,98.29c-0.62,1.85-1.79,3.47-3.37,4.62c-1.57,1.15-3.47,1.79-5.42,1.82h-12.38
		c-2.11,0-2.97-0.62-2.85-2.85c0.12-2.23,0-5.08,0-7.55c0-9.9,0-9.9,9.66-9.9c4.46,0,9.04-0.74,12.38,3.22
		c1.34,1.38,2.25,3.13,2.6,5.02C889.58,94.56,889.36,96.51,888.61,98.29z"/>
	<path class="st1" d="M945.92,116.23c0-20.3,0-40.73,0-61.03c0-3.59,0.87-4.58,4.46-4.58h81.44c5.08,0,5.33,0,5.33,5.08
		c0,9.66,0,19.19,0,28.84c0,2.97-0.75,3.96-3.84,3.84c-13.62,0-27.35,0-41.09,0c-4.96,0-3.84,2.97-4.09,5.7
		c-0.25,2.72,0,4.58,4.09,4.46c12.37,0,24.75,0,37.13,0c2.85,0,3.71,0.87,3.71,3.71c0,9.28,0,18.69,0,27.98
		c0,2.97-0.99,3.71-3.71,3.71h-37.13c-3.22,0-4.21,0.87-4.09,4.09c0,6.81,0,6.81,7.06,6.81c13.49,0,27.1,0,40.6,0
		c3.21,0,3.96,0.99,3.83,3.96c0,10.03,0,19.93,0,29.96c0,2.85,0,3.96-3.71,3.96h-86.4c-3.46,0-3.96-1.24-3.96-4.21L945.92,116.23z"
		/>
	<path class="st1" d="M1161.17,55.95c2.85,1.98,5.7,3.84,8.42,5.94c4.7,3.47,4.95,4.09,1.12,8.79
		c-5.95,7.06-12.38,14.11-18.08,20.92c-1.85,1.98-2.35,5.69-5.44,5.94c-3.1,0.25-4.09-2.97-6.32-4.33
		c-3.45-2.36-7.41-3.86-11.55-4.37c-4.16-0.51-8.37-0.03-12.28,1.41c-3.93,1.44-7.45,3.8-10.28,6.88
		c-2.83,3.08-4.87,6.79-5.98,10.82c-1.77,5.33-1.9,11.07-0.38,16.47c1.52,5.41,4.63,10.23,8.92,13.85
		c5.02,3.96,11.28,5.96,17.66,5.64c6.38-0.32,12.41-2.94,17-7.37c3.22-3.71,3.34-3.47,6.44,0c7.3,8.79,14.48,17.58,21.78,26.24
		c1.98,2.35,2.23,3.59,0,5.82c-10.79,8.97-23.94,14.65-37.88,16.34c-0.74,0-1.48,0-2.1,0.74h-18.44
		c-6.81-1.49-13.51-3.43-20.05-5.82c-11.6-4.62-21.65-12.44-28.98-22.54c-7.34-10.1-11.67-22.07-12.49-34.53
		c-2.02-17.68,2.95-35.46,13.86-49.52c4.16-4.71,8.9-8.87,14.11-12.38c0.87,0,1.86-0.87,2.11-1.98c0.25-1.11,1.85-1.98,3.09-2.6
		c10.31-5.32,21.62-8.41,33.2-9.07c11.58-0.66,23.16,1.12,34.01,5.23C1155.65,53.14,1158.55,54.31,1161.17,55.95z"/>
	<path class="st1" d="M1279.26,182.09h-73.4c-5.2,0-10.52,0-15.72,0s-4.71-0.74-4.71-4.58c0-31.81,0-63.75,0-95.57
		c0-9.28,0-18.45,0-27.73c0-2.72,0-3.84,3.59-3.84h82.94c3.46,0,4.45,1.24,4.45,4.46c0,10.03,0,20.05,0,29.96
		c0,2.72-0.87,3.59-3.59,3.47c-13.61,0-27.35,0-41.09,0c-3.1,0-4.46,0.87-3.96,4.09v1.49c0,3.47,0.62,4.7,4.33,4.58
		c12.38,0,24.75,0,37.13,0c3.1,0,4.21,0.87,4.21,4.09c0,9.16,0,18.45,0,27.61c0,2.97-0.99,3.71-3.84,3.71h-37.13
		c-3.22,0-4.21,0.87-4.08,4.09c0,8.05-0.87,6.68,6.68,6.81H1280L1279.26,182.09z"/>
	<path class="st2" d="M160.04,43.69c-3.33,1.01-6.8,1.47-10.27,1.36c-13.57,0-27.04-0.58-40.51-1.36
		c-9.69-0.48-18.71-0.97-27.91-1.16c-7.32-0.18-14.64,0.18-21.91,1.07c-6.5,0.42-12.6,3.32-17.04,8.1
		c-4.43,4.78-6.87,11.07-6.81,17.59c-0.53,5.57-0.73,11.17-0.58,16.77c0.58,19.39,0,38.77,0,58.64c0,11.15-0.78,22.39-0.97,33.64
		c0,1.16,0,2.71-0.97,3.2c-0.97,0.48-2.13-0.78-3-1.55c-1.76-1.8-3.23-3.86-4.36-6.11c-10.24-18.83-17.37-39.19-21.13-60.29
		C1.42,99.16-0.11,84.43,0.02,69.66C-0.34,53.03,4.25,36.67,13.2,22.65c5-7.82,12.12-14.07,20.52-18.02
		c8.41-3.95,17.76-5.43,26.97-4.28c21.12,2.39,41.56,8.98,60.09,19.39c11.34,5.82,22.68,11.92,33.63,18.51
		C156.7,39.59,158.63,41.45,160.04,43.69z"/>
	<path class="st1" d="M227.89,15.97c-1.65,1.84-3.2,3.68-4.94,5.43c-23.26,22-46.04,44.59-69.2,66.79
		c-10.27,9.69-19.97,20.26-30.92,29.08c-1.65,1.36-2.42,1.26-3.78,0c-4.36-5.04-8.82-9.69-13.38-15.02
		c-1.84-1.94-0.68-3.01,0.78-4.07c6.11-4.27,12.12-8.43,18.32-12.6l100.12-68.44l2.71-1.65L227.89,15.97z"/>
	<path class="st3" d="M222.75,143.24c-3.85-22.15-10.87-43.63-20.84-63.78c-1.64-3.49-3.73-6.74-6.2-9.69
		c-0.25-0.45-0.64-0.81-1.12-1c-0.48-0.19-1.01-0.22-1.5-0.07c-0.46,0.21-0.85,0.53-1.14,0.94c-0.29,0.41-0.47,0.89-0.51,1.39
		c-0.05,0.61-0.05,1.23,0,1.84c0.48,13.67-0.87,27.24-0.87,40.81c0,20.65,0,41.29,0,61.94c0.02,4.11-0.4,8.2-1.26,12.21
		c-1.94,9.6-5.72,13.57-14.15,14.93c-7.92,1.23-15.95,1.58-23.94,1.07c-22.58-1.36-45.17-4.46-67.85-6.11
		c-7.69-0.87-15.43-1.16-23.17-0.87c-1.55,0.1-3.68,0-4.26,1.94c-0.2,0.95-0.12,1.93,0.24,2.83c0.36,0.9,0.99,1.67,1.79,2.21
		l1.84,1.45c16.03,11.93,33.4,21.95,51.76,29.86c7.98,3.47,16.13,6.51,24.42,9.11l0.31-0.15l7.53,1.74c2.4,0.44,8.5,1.31,13.73,1.31
		c6.54,0,12.42,0.65,28.77-1.31c5.01-0.6,8.77-1.93,11.55-3.51l0.24,0.08c0.42-0.33,0.83-0.67,1.24-1c1.09-0.75,2-1.54,2.72-2.32
		c2.19-1.93,4.3-3.96,6.31-6.08c9.96-12.56,15.79-27.9,16.67-43.91C226.44,173.77,225.66,158.34,222.75,143.24z"/>
</g>
</svg>
