<?xml version="1.0" encoding="utf-8"?>
<!-- Generator: Adobe Illustrator 23.0.1, SVG Export Plug-In . SVG Version: 6.00 Build 0)  -->
<svg version="1.1" id="Capa_1" xmlns="http://www.w3.org/2000/svg" xmlns:xlink="http://www.w3.org/1999/xlink" x="0px" y="0px"
	 viewBox="0 0 1280 248" style="enable-background:new 0 0 1280 248;" xml:space="preserve">
<style type="text/css">
	.st0{fill:#FFFFFF;}
	.st1{fill:#48A5BB;}
	.st2{fill:#F8FBFD;}
	.st3{fill:#D07832;}
</style>
<g>
	<path class="st0" d="M541.05,51.9h-39.11c-6.81,0-7.18,0-8.91,6.81c-3.59,14.36-7.05,28.71-10.64,43.07l-7.8,30.45
		c-1.12-1.25-1.86-2.8-2.1-4.46c-6.19-23.64-12.38-47.15-18.69-70.79c0-1.73-0.74-3.84-2.85-4.7c-1.58-0.43-3.25-0.43-4.83,0H297.62
		c-0.46,0-0.9,0.18-1.23,0.51c-0.32,0.33-0.51,0.77-0.51,1.23c0,11.76,0,23.14,0,34.9c0,0,2.47,1.36,3.96,1.36
		c7.92,0,15.84,0,23.76,0c3.59,0,4.21,1.11,4.08,4.33c0,28.22,0,56.56,0,84.9c0,3.22,0.87,3.96,4.08,3.96c12.38,0,24.75,0,37.13,0
		c2.97,0,3.71-0.87,3.71-3.84c0-28.09,0-56.31,0-84.41c0-3.71,0.62-5.2,4.7-4.95c7.3,0,14.6,0,21.9,0c5.32,0,6.19-1.11,6.06-6.44
		c-0.12-5.32,0-14.11,0-21.16c1.72,3.57,3.21,7.25,4.46,11.02l37.13,106.19c0.62,1.48,0.62,3.34,3.34,3.34h45.29
		c0.31,0.05,0.63,0.04,0.93-0.03s0.59-0.2,0.85-0.39c0.25-0.18,0.47-0.42,0.63-0.69c0.16-0.27,0.27-0.57,0.31-0.88
		c7.51-20.88,15.1-41.88,22.77-63c7.67-21.12,15.26-42,22.77-62.63C545.26,51.9,543.77,51.9,541.05,51.9z"/>
	<path class="st0" d="M809.6,175.66c-15.84-40.6-31.64-81.23-47.4-121.91c-0.26-0.97-0.87-1.81-1.72-2.36s-1.86-0.76-2.86-0.61
		h-40.34c-1.12-0.12-2.25,0.18-3.16,0.85c-0.91,0.66-1.55,1.64-1.79,2.74l-36.38,92.45c-2.35,6.19-4.95,12.38-7.43,18.56
		c-1.8-1.27-3.39-2.81-4.7-4.58c-6.56-7.67-13.24-15.35-19.55-23.14c-2.6-3.22-4.58-3.09-7.3,0c-2.35,2.3-5.14,4.11-8.2,5.32
		c-3.06,1.21-6.33,1.8-9.62,1.73c-5.69-0.2-11.16-2.22-15.62-5.76c-4.45-3.54-7.66-8.42-9.14-13.91
		c-1.69-5.82-1.48-12.02,0.59-17.72c2.07-5.69,5.89-10.58,10.92-13.96c4.96-2.93,10.71-4.22,16.44-3.69
		c5.73,0.53,11.15,2.86,15.48,6.66c2.48,2.1,4.21,2.23,6.31,0l21.53-26.12c2.97-3.71,2.85-4.33-1.24-7.18
		c-16.87-11.98-37.67-17.07-58.16-14.23c-9.35,0.86-18.42,3.7-26.59,8.33c-8.17,4.63-15.26,10.95-20.81,18.53
		c-10.06,14.1-14.47,31.45-12.38,48.64c0.56,12.58,4.81,24.71,12.23,34.88c7.42,10.17,17.67,17.93,29.48,22.3
		c6.96,2.45,14.13,4.27,21.41,5.45h15.34c0-0.74,1.36-0.62,2.1-0.74c13.38-0.89,26.1-6.1,36.26-14.85c1.24-1.11,2.6-1.86,4.21-3.09
		c-0.9,3.91-2.27,7.69-4.08,11.26c-0.87,2.35-0.87,3.71,2.48,3.71H707c2.35,0,3.22-0.87,3.84-3.09c1.24-4.46,2.72-8.79,4.08-13.24
		c0.09-0.46,0.27-0.9,0.53-1.3c0.26-0.39,0.59-0.73,0.99-1c0.39-0.26,0.83-0.45,1.29-0.54c0.46-0.09,0.94-0.1,1.4-0.01h35.02
		c0.87-0.14,1.76,0.06,2.48,0.57c0.72,0.51,1.21,1.28,1.36,2.15c1.48,4.46,3.22,8.91,4.58,13.37c0.74,2.48,1.98,3.09,4.46,3.09
		h38.36C812.2,182.72,812.2,182.72,809.6,175.66z M748.34,134.57c-7.8,0-15.59,0-23.39,0c-1.86,0-3.34,0-2.47-2.72l14.11-46.66
		c0,0,0,0,0.87-1.11c2.23,7.05,4.21,13.86,6.31,20.67c2.1,6.81,5.07,17.2,7.8,25.62c1.11,3.71-0.12,4.58-3.22,4.46V134.57z"/>
	<path class="st0" d="M930.39,90.51c-0.4-6.94-2.67-13.64-6.57-19.39c-3.9-5.75-9.29-10.34-15.58-13.28
		c-10.59-4.68-22.09-6.96-33.66-6.68c-16.58,0-33.17,0-49.5,0c-3.84,0-5.07,1.24-4.95,5.07c0,20.3,0,40.72,0,61.02
		c0,20.3,0,41.21,0,61.88c0,2.72,0,3.71,3.59,3.71h37.13c2.97,0,3.59-0.99,3.59-3.71c0-11.39,0-22.77,0-34.16
		c0-3.09,0.87-3.84,3.84-3.84c9.46,0.15,18.9-0.88,28.09-3.09c5.83-0.95,11.4-3.13,16.33-6.39c4.93-3.27,9.11-7.54,12.26-12.54
		C929.88,110.44,931.79,100.38,930.39,90.51z M888.56,98.68c-0.62,1.85-1.79,3.47-3.37,4.62c-1.57,1.15-3.47,1.79-5.42,1.82h-12.38
		c-2.1,0-2.97-0.62-2.85-2.85c0.12-2.23,0-5.07,0-7.55c0-9.9,0-9.9,9.65-9.9c4.46,0,9.03-0.74,12.37,3.22
		c1.34,1.38,2.25,3.13,2.6,5.02C889.53,94.95,889.31,96.91,888.56,98.68z"/>
	<path class="st0" d="M945.85,116.63c0-20.3,0-40.72,0-61.02c0-3.59,0.87-4.58,4.46-4.58h81.43c5.08,0,5.33,0,5.33,5.07
		c0,9.65,0,19.18,0,28.84c0,2.97-0.75,3.96-3.84,3.84c-13.62,0-27.34,0-41.08,0c-4.95,0-3.84,2.97-4.09,5.69
		c-0.25,2.72,0,4.58,4.09,4.46c12.37,0,24.74,0,37.12,0c2.85,0,3.71,0.87,3.71,3.71c0,9.28,0,18.69,0,27.97
		c0,2.97-0.99,3.71-3.71,3.71h-37.12c-3.22,0-4.21,0.87-4.09,4.08c0,6.81,0,6.81,7.06,6.81c13.49,0,27.09,0,40.59,0
		c3.21,0,3.96,0.99,3.83,3.96c0,10.03,0,19.93,0,29.95c0,2.85,0,3.96-3.71,3.96h-86.38c-3.46,0-3.96-1.24-3.96-4.21L945.85,116.63z"
		/>
	<path class="st0" d="M1161.06,56.35c2.85,1.98,5.7,3.84,8.42,5.94c4.7,3.47,4.95,4.08,1.12,8.79
		c-5.95,7.05-12.38,14.11-18.08,20.92c-1.85,1.98-2.35,5.69-5.44,5.94c-3.1,0.25-4.09-2.97-6.32-4.33
		c-3.45-2.36-7.41-3.85-11.55-4.37c-4.16-0.51-8.36-0.03-12.28,1.41c-3.93,1.44-7.45,3.8-10.28,6.88
		c-2.83,3.08-4.87,6.78-5.98,10.81c-1.77,5.33-1.9,11.07-0.38,16.47c1.52,5.4,4.63,10.23,8.92,13.85
		c5.01,3.95,11.28,5.96,17.65,5.64c6.37-0.32,12.41-2.94,17-7.37c3.22-3.71,3.34-3.47,6.44,0c7.3,8.79,14.48,17.57,21.78,26.24
		c1.98,2.35,2.23,3.59,0,5.82c-10.79,8.97-23.94,14.64-37.87,16.34c-0.74,0-1.48,0-2.1,0.74h-18.44
		c-6.81-1.49-13.51-3.43-20.05-5.82c-11.59-4.62-21.64-12.44-28.98-22.53c-7.34-10.1-11.67-22.07-12.49-34.52
		c-2.02-17.68,2.95-35.45,13.86-49.51c4.15-4.71,8.9-8.87,14.11-12.38c0.87,0,1.86-0.87,2.11-1.98c0.25-1.11,1.85-1.98,3.09-2.6
		c10.31-5.32,21.61-8.41,33.2-9.07c11.57-0.66,23.16,1.12,34,5.23C1155.55,53.55,1158.44,54.72,1161.06,56.35z"/>
	<path class="st0" d="M1279.13,182.47h-73.39c-5.2,0-10.52,0-15.72,0c-5.2,0-4.71-0.74-4.71-4.58c0-31.81,0-63.74,0-95.55
		c0-9.28,0-18.44,0-27.72c0-2.72,0-3.84,3.59-3.84h82.93c3.46,0,4.45,1.24,4.45,4.46c0,10.03,0,20.05,0,29.95
		c0,2.72-0.87,3.59-3.59,3.47c-13.61,0-27.34,0-41.08,0c-3.1,0-4.46,0.87-3.96,4.08v1.49c0,3.47,0.62,4.7,4.33,4.58
		c12.38,0,24.74,0,37.12,0c3.1,0,4.21,0.87,4.21,4.08c0,9.16,0,18.44,0,27.6c0,2.97-0.99,3.71-3.84,3.71h-37.12
		c-3.22,0-4.21,0.87-4.08,4.08c0,8.04-0.87,6.68,6.68,6.81h44.92L1279.13,182.47z"/>
	<path class="st1" d="M160.14,44.09c-3.33,1.01-6.8,1.47-10.27,1.36c-13.57,0-27.04-0.58-40.51-1.36
		c-9.69-0.48-18.7-0.97-27.91-1.16c-7.32-0.18-14.64,0.18-21.9,1.07c-6.5,0.42-12.6,3.32-17.03,8.09
		c-4.43,4.78-6.87,11.07-6.81,17.59c-0.53,5.57-0.73,11.17-0.58,16.77c0.58,19.38,0,38.77,0,58.63c0,11.15-0.78,22.39-0.97,33.63
		c0,1.16,0,2.71-0.97,3.2c-0.97,0.48-2.13-0.78-3-1.55c-1.76-1.8-3.23-3.86-4.36-6.11C15.6,155.42,8.46,135.07,4.71,113.97
		c-3.16-14.42-4.69-29.14-4.55-43.9c-0.35-16.63,4.23-32.99,13.18-47c5-7.82,12.11-14.07,20.52-18.01
		c8.4-3.94,17.75-5.43,26.96-4.28c21.12,2.39,41.55,8.98,60.08,19.38c11.34,5.81,22.68,11.92,33.63,18.51
		C156.8,40,158.73,41.86,160.14,44.09z"/>
	<path class="st2" d="M227.97,16.38c-1.65,1.84-3.2,3.68-4.94,5.43c-23.26,22-46.03,44.58-69.19,66.77
		c-10.27,9.69-19.96,20.26-30.91,29.07c-1.65,1.36-2.42,1.26-3.78,0c-4.36-5.04-8.82-9.69-13.37-15.02c-1.84-1.94-0.68-3,0.78-4.07
		c6.1-4.26,12.11-8.43,18.31-12.6l100.1-68.42l2.71-1.65L227.97,16.38z"/>
	<path class="st3" d="M222.84,143.62c-3.85-22.15-10.87-43.62-20.83-63.77c-1.64-3.49-3.72-6.74-6.2-9.69
		c-0.25-0.45-0.64-0.81-1.12-1c-0.48-0.19-1.01-0.22-1.5-0.07c-0.46,0.21-0.85,0.53-1.14,0.94c-0.29,0.41-0.47,0.89-0.51,1.39
		c-0.05,0.61-0.05,1.23,0,1.84c0.48,13.67-0.87,27.23-0.87,40.8c0,20.64,0,41.29,0,61.93c0.02,4.1-0.4,8.2-1.26,12.21
		c-1.94,9.59-5.72,13.57-14.15,14.93c-7.92,1.23-15.94,1.58-23.94,1.07c-22.58-1.36-45.16-4.46-67.83-6.11
		c-7.69-0.87-15.43-1.16-23.16-0.87c-1.55,0.1-3.68,0-4.26,1.94c-0.2,0.95-0.12,1.93,0.24,2.83c0.36,0.9,0.99,1.67,1.79,2.21
		l1.84,1.45c16.03,11.93,33.4,21.94,51.75,29.85c7.97,3.47,16.13,6.51,24.42,9.11l0.31-0.15l7.53,1.74c2.4,0.44,8.5,1.31,13.73,1.31
		c6.54,0,12.42,0.65,28.76-1.31c5.01-0.6,8.77-1.93,11.54-3.51l0.24,0.08c0.42-0.33,0.83-0.67,1.24-1c1.09-0.75,1.99-1.54,2.72-2.32
		c2.19-1.93,4.3-3.96,6.31-6.08c9.96-12.56,15.78-27.9,16.67-43.9C226.53,174.15,225.74,158.72,222.84,143.62z"/>
</g>
</svg>
